HIERARCHY
ROOT Hips
{
	OFFSET -0.001795 -0.223333 0.028219
	CHANNELS 6 Xposition Yposition Zposition Zrotation Yrotation Xrotation 
	JOINT LeftUpLeg
	{
		OFFSET 0.069520 -0.091406 -0.006815
		CHANNELS 3 Zrotation Yrotation Xrotation
		JOINT LeftLeg
		{
			OFFSET 0.034277 -0.375199 -0.004496
			CHANNELS 3 Zrotation Yrotation Xrotation
			JOINT LeftFoot
			{
				OFFSET -0.013596 -0.397961 -0.043693
				CHANNELS 3 Zrotation Yrotation Xrotation
				JOINT LeftToe
				{
					OFFSET 0.026358 -0.055791 0.119288
					CHANNELS 3 Zrotation Yrotation Xrotation
					End Site
					{
						OFFSET 0.000000 0.000000 0.000000
					}
				}
			}
		}
	}
	JOINT RightUpLeg
	{
		OFFSET -0.067670 -0.090522 -0.004320
		CHANNELS 3 Zrotation Yrotation Xrotation
		JOINT RightLeg
		{
			OFFSET -0.038290 -0.382569 -0.008850
			CHANNELS 3 Zrotation Yrotation Xrotation
			JOINT RightFoot
			{
				OFFSET 0.015774 -0.398415 -0.042312
				CHANNELS 3 Zrotation Yrotation Xrotation
				JOINT RightToe
				{
					OFFSET -0.025372 -0.048144 0.123348
					CHANNELS 3 Zrotation Yrotation Xrotation
					End Site
					{
						OFFSET 0.000000 0.000000 0.000000
					}
				}
			}
		}
	}
	JOINT Spine
	{
		OFFSET -0.002533 0.108963 -0.026696
		CHANNELS 3 Zrotation Yrotation Xrotation
		JOINT Spine1
		{
			OFFSET 0.005487 0.135180 0.001092
			CHANNELS 3 Zrotation Yrotation Xrotation
			JOINT Spine2
			{
				OFFSET 0.001457 0.052922 0.025425
				CHANNELS 3 Zrotation Yrotation Xrotation
				JOINT Neck
				{
					OFFSET -0.002778 0.213870 -0.042857
					CHANNELS 3 Zrotation Yrotation Xrotation
					JOINT Head
					{
						OFFSET 0.005152 0.064970 0.051349
						CHANNELS 3 Zrotation Yrotation Xrotation
						End Site
						{
							OFFSET 0.000000 0.000000 0.000000
						}
					}
				}
				JOINT LeftShoulder
				{
					OFFSET 0.078845 0.121749 -0.034090
					CHANNELS 3 Zrotation Yrotation Xrotation
					JOINT LeftArm
					{
						OFFSET 0.090977 0.030469 -0.008868
						CHANNELS 3 Zrotation Yrotation Xrotation
						JOINT LeftForeArm
						{
							OFFSET 0.259612 -0.012772 -0.027456
							CHANNELS 3 Zrotation Yrotation Xrotation
							JOINT LeftHand
							{
								OFFSET 0.249234 0.008986 -0.001171
								CHANNELS 3 Zrotation Yrotation Xrotation
								End Site
								{
									OFFSET 0.000000 0.000000 0.000000
								}
							}
						}
					}
				}
				JOINT RightShoulder
				{
					OFFSET -0.081759 0.118833 -0.038615
					CHANNELS 3 Zrotation Yrotation Xrotation
					JOINT RightArm
					{
						OFFSET -0.096012 0.032551 -0.009143
						CHANNELS 3 Zrotation Yrotation Xrotation
						JOINT RightForeArm
						{
							OFFSET -0.253742 -0.013329 -0.021401
							CHANNELS 3 Zrotation Yrotation Xrotation
							JOINT RightHand
							{
								OFFSET -0.255298 0.007772 -0.005559
								CHANNELS 3 Zrotation Yrotation Xrotation
								End Site
								{
									OFFSET 0.000000 0.000000 0.000000
								}
							}
						}
					}
				}
			}
		}
	}
}
MOTION
Frames: 13
Frame Time: 0.050000
-0.000401 0.951718 0.001281 -0.874491 -9.083324 0.751681 1.820024 0.022519 0.185661 1.597398 -0.132260 -1.490652 2.147618 6.552177 8.958067 0.000000 0.000000 0.000000 0.599093 0.245789 -2.701264 -3.156598 0.367220 1.143072 5.067205 4.604422 10.249636 0.000000 0.000000 0.000000 3.760168 0.130249 -2.096371 -0.326713 0.171516 1.307787 -3.997126 8.249300 3.738897 4.013884 -1.987427 -7.566378 0.000000 0.000000 0.000000 8.076422 -18.892402 5.865664 -3.342502 -43.431506 -1.946701 57.389873 -26.061340 -14.001002 0.000000 0.000000 0.000000 12.616587 10.506074 4.636771 61.736157 5.901173 -2.748824 11.171318 19.738160 2.479940 0.000000 0.000000 0.000000 
-0.000331 0.951480 0.001182 -0.826246 -9.097636 0.637855 1.811311 0.026938 0.231475 1.583457 -0.122536 -1.668447 1.821828 5.968363 8.938638 0.000000 0.000000 0.000000 0.616645 0.226997 -2.518832 -3.138591 0.354844 0.995547 5.049612 4.519456 10.315563 0.000000 0.000000 0.000000 3.635415 0.120190 -1.973092 -0.287234 0.149742 1.086416 -3.986003 8.363917 3.956300 4.009201 -1.992980 -7.481309 0.000000 0.000000 0.000000 8.850702 -19.168001 5.895350 -3.558462 -43.318039 -1.902474 57.047379 -26.100523 -13.949317 0.000000 0.000000 0.000000 12.270402 10.705202 4.727511 62.305733 5.927470 -2.754280 10.717269 19.773666 2.415263 0.000000 0.000000 0.000000 
-0.000236 0.951600 0.001050 -0.784853 -9.161158 0.475698 1.768903 0.033549 0.299601 1.635600 -0.127498 -1.691220 1.649790 5.671542 9.006332 0.000000 0.000000 0.000000 0.605048 0.217733 -2.423801 -3.139480 0.358946 1.052276 4.909823 4.198017 10.350392 0.000000 0.000000 0.000000 3.527556 0.111547 -1.854109 -0.207469 0.109279 0.938462 -4.051110 8.416100 4.057794 3.988487 -1.989605 -7.400718 0.000000 0.000000 0.000000 9.204788 -19.507833 5.958282 -3.565108 -43.498619 -1.921714 56.044591 -26.302929 -13.754824 0.000000 0.000000 0.000000 12.114734 10.963887 4.844528 62.423023 5.991489 -2.728593 10.502792 19.810921 2.385281 0.000000 0.000000 0.000000 
-0.000128 0.951828 0.000916 -0.743749 -9.140693 0.388112 1.757835 0.047106 0.459499 1.592301 -0.108056 -2.001655 1.470069 5.364220 9.048330 0.000000 0.000000 0.000000 0.604942 0.218993 -2.433462 -3.130550 0.369859 1.214608 4.643746 3.783336 10.152338 0.000000 0.000000 0.000000 3.371835 0.096260 -1.665556 -0.132191 0.071162 0.797589 -4.052669 8.498882 4.026964 4.044687 -1.990394 -7.624193 0.000000 0.000000 0.000000 9.911413 -19.908073 6.018588 -3.316879 -43.830198 -2.036228 55.200010 -26.144270 -13.437250 0.000000 0.000000 0.000000 11.839003 11.055258 4.881566 62.657948 5.962685 -2.732467 10.388022 19.922898 2.383778 0.000000 0.000000 0.000000 
-0.000015 0.951713 0.000783 -0.737977 -9.049652 0.367624 1.748103 0.049060 0.486465 1.559839 -0.097670 -2.141447 1.411332 5.266787 9.039432 0.000000 0.000000 0.000000 0.649944 0.217747 -2.426044 -3.184894 0.372795 1.169475 4.598916 3.739771 10.096471 0.000000 0.000000 0.000000 3.263251 0.094715 -1.657823 -0.070929 0.039877 0.626848 -3.949974 8.319448 4.329475 3.899133 -1.863474 -7.867942 0.000000 0.000000 0.000000 10.889180 -20.120751 5.992326 -2.794403 -44.160475 -2.223395 54.144873 -25.464915 -12.749233 0.000000 0.000000 0.000000 11.151060 11.365103 4.946005 62.866281 6.228788 -2.603087 10.562053 20.019029 2.422185 0.000000 0.000000 0.000000 
0.000079 0.951643 0.000605 -0.768603 -8.998013 0.269061 1.803183 0.041661 0.390438 1.612382 -0.101885 -2.166708 1.315522 5.138299 9.206254 0.000000 0.000000 0.000000 0.740761 0.200498 -2.269968 -3.249083 0.371207 1.049227 4.570434 3.611538 10.212814 0.000000 0.000000 0.000000 3.142937 0.090972 -1.609433 -0.026982 0.017745 0.550068 -3.870927 8.179740 4.500965 3.924358 -1.884996 -7.915270 0.000000 0.000000 0.000000 11.775707 -20.375597 5.977305 -2.276716 -44.508380 -2.410295 53.278201 -24.492505 -12.000574 0.000000 0.000000 0.000000 10.654309 11.670536 5.027198 63.062170 6.275190 -2.589620 10.783864 20.237115 2.486917 0.000000 0.000000 0.000000 
0.000184 0.951662 0.000466 -0.676350 -9.037052 0.207044 1.708400 0.047958 0.464510 1.624350 -0.097157 -2.293953 1.162021 4.853201 9.164035 0.000000 0.000000 0.000000 0.637890 0.197713 -2.223971 -3.244564 0.371017 1.055174 4.448390 3.398424 10.144798 0.000000 0.000000 0.000000 3.024287 0.086888 -1.561557 -0.105359 0.055508 0.555724 -3.774987 8.036215 4.519373 3.429575 -1.573161 -7.718444 0.000000 0.000000 0.000000 12.275585 -20.555862 5.967506 -1.746357 -44.741123 -2.576826 52.828772 -23.609999 -11.413740 0.000000 0.000000 0.000000 10.452733 11.908545 5.089021 63.067954 6.001227 -2.745775 10.657935 20.729670 2.531111 0.000000 0.000000 0.000000 
0.000286 0.951600 0.000328 -0.556447 -8.745722 0.198758 1.644636 0.053732 0.549073 1.571459 -0.085852 -2.394550 0.790798 4.194234 9.043049 0.000000 0.000000 0.000000 0.504300 0.206951 -2.283805 -3.234309 0.375320 1.109121 4.200974 3.120949 9.846789 0.000000 0.000000 0.000000 2.902050 0.086715 -1.578770 -0.047556 0.026623 0.518719 -3.826507 7.769242 4.661931 2.690745 -1.027122 -7.926721 0.000000 0.000000 0.000000 12.590817 -20.655624 5.954135 -1.141766 -44.811394 -2.768627 52.173259 -22.990767 -10.926328 0.000000 0.000000 0.000000 10.032199 12.024234 5.091670 63.552530 5.605942 -2.976821 10.445509 21.421246 2.592047 0.000000 0.000000 0.000000 
0.000346 0.951452 0.000209 -0.513004 -8.396312 0.176664 1.567344 0.047533 0.490720 1.580889 -0.095415 -2.192420 0.767223 4.172249 8.987332 0.000000 0.000000 0.000000 0.455978 0.217902 -2.375241 -3.133371 0.381767 1.322092 4.010009 2.907912 9.636945 0.000000 0.000000 0.000000 2.897649 0.086053 -1.572260 -0.028791 0.016709 0.528506 -3.886616 7.522795 4.825620 2.309526 -0.712802 -8.319633 0.000000 0.000000 0.000000 12.454423 -20.695904 5.964770 -0.390140 -44.920051 -3.014887 51.385083 -22.171856 -10.332920 0.000000 0.000000 0.000000 10.125546 11.915451 5.044173 63.558906 5.563532 -3.024473 10.651127 21.678155 2.667312 0.000000 0.000000 0.000000 
0.000392 0.951487 0.000066 -0.490108 -8.112876 0.189886 1.415689 0.044043 0.463139 1.655118 -0.105404 -2.125208 0.835909 4.361721 9.153010 0.000000 0.000000 0.000000 0.483184 0.237846 -2.569664 -3.124489 0.402747 1.608981 3.764302 2.518770 9.506438 0.000000 0.000000 0.000000 2.801592 0.075093 -1.432669 -0.000234 0.002267 0.521779 -3.833707 7.413569 4.721145 2.279838 -0.635312 -8.772830 0.000000 0.000000 0.000000 12.214911 -20.581254 5.963228 0.449214 -44.781244 -3.270424 50.402041 -22.482287 -10.233319 0.000000 0.000000 0.000000 10.295522 11.607237 4.920899 63.384991 5.472588 -3.064191 11.050378 21.803574 2.759963 0.000000 0.000000 0.000000 
0.000464 0.951521 -0.000068 -0.483689 -7.934716 0.229268 1.408650 0.040079 0.425436 1.723662 -0.111602 -2.130724 0.801612 4.321047 9.166352 0.000000 0.000000 0.000000 0.459631 0.250069 -2.682905 -3.155556 0.426301 1.875564 3.671839 2.421779 9.391894 0.000000 0.000000 0.000000 2.731856 0.079685 -1.512611 0.048529 -0.021651 0.474230 -3.726955 7.369777 4.742580 2.264744 -0.639664 -8.639356 0.000000 0.000000 0.000000 12.284475 -20.378716 5.915091 1.015677 -44.656774 -3.444823 49.491238 -22.514440 -10.027134 0.000000 0.000000 0.000000 10.320221 11.485612 4.870986 63.297656 5.330250 -3.139029 11.123915 21.984402 2.801261 0.000000 0.000000 0.000000 
0.000536 0.951625 -0.000175 -0.483842 -7.909618 0.227403 1.375521 0.026534 0.266924 1.811016 -0.134395 -1.852737 0.801852 4.269857 8.953402 0.000000 0.000000 0.000000 0.419389 0.258237 -2.757238 -3.088876 0.435789 2.107895 3.656728 2.443625 9.312142 0.000000 0.000000 0.000000 2.600245 0.078060 -1.502001 0.049943 -0.022290 0.616640 -3.624337 7.406206 4.568277 2.133993 -0.552379 -8.580696 0.000000 0.000000 0.000000 12.414157 -20.228805 5.881185 1.296264 -44.580976 -3.529306 48.783708 -23.119536 -10.122588 0.000000 0.000000 0.000000 10.253750 11.285174 4.777788 63.512640 5.142844 -3.224850 11.277671 21.925313 2.822126 0.000000 0.000000 0.000000 
0.000592 0.951772 -0.000270 -0.479106 -7.794576 0.131515 1.364249 0.029432 0.300114 1.830946 -0.148671 -1.599936 0.750418 4.133061 8.727129 0.000000 0.000000 0.000000 0.341183 0.246683 -2.628575 -3.014904 0.420084 1.998443 3.708275 2.573012 9.301185 0.000000 0.000000 0.000000 2.534803 0.068375 -1.354066 0.036654 -0.016335 0.733648 -3.581857 7.495886 4.391334 2.022591 -0.461406 -8.600796 0.000000 0.000000 0.000000 12.659125 -20.078153 5.847347 1.314429 -44.893145 -3.588791 48.830811 -23.247939 -10.218097 0.000000 0.000000 0.000000 10.275203 11.174607 4.751027 63.782926 4.795267 -3.399454 11.161079 21.968920 2.812293 0.000000 0.000000 0.000000 
